# xmcd
#
# Track frame offsets:
#	150
#	25203
#	49478
#	73096
#	96369
#	114670
#	132375
#	144288
#	168400
#	181175
#	193481
#	214870
#	242376
#
# Disc length: 3358 seconds
#
# Revision: 0
# Processed by: cddbd v1.5.2PL0 Copyright (c) Steve Scherf et al.
# Submitted via: audiograbber 1.83.01
#
DISCID=c40d1c0d
DTITLE=Larry The Cable Guy  - Morning Constitutions
DYEAR=2007
DGENRE=Comedy
TTITLE0=Bowling Shoes
TTITLE1=Just Hitched
TTITLE2=I Like Steak
TTITLE3=Pie Of The Month
TTITLE4=Terrorist Or Toddler
TTITLE5=Gay Mafia
TTITLE6=Stool Troubles
TTITLE7=Shopping At Walmart
TTITLE8=Bed, Beer and A Blonde
TTITLE9=Squeal Or No Squeal
TTITLE10=A Sue Named Boy
TTITLE11=Poop Lasagna
TTITLE12=Data Track
EXTD=
EXTT0=
EXTT1=
EXTT2=
EXTT3=
EXTT4=
EXTT5=
EXTT6=
EXTT7=
EXTT8=
EXTT9=
EXTT10=
EXTT11=
EXTT12=
PLAYORDER=
